<mxfile host="Electron" modified="2023-09-18T03:33:56.062Z" agent="Mozilla/5.0 (Windows NT 10.0; Win64; x64) AppleWebKit/537.36 (KHTML, like Gecko) draw.io/21.5.1 Chrome/112.0.5615.204 Electron/24.6.0 Safari/537.36" etag="KoNdE_Ek5bw3w8XP0m-u" version="21.5.1" type="device">
  <diagram name="Page-1" id="6sOWo0dLlARQL9HUZVW9">
    <mxGraphModel dx="2060" dy="840" grid="1" gridSize="10" guides="1" tooltips="1" connect="1" arrows="1" fold="1" page="1" pageScale="1" pageWidth="827" pageHeight="1169" math="0" shadow="0">
      <root>
        <mxCell id="0" />
        <mxCell id="1" parent="0" />
        <mxCell id="by5BGTRYLvVXxBjccCe3-34" style="edgeStyle=orthogonalEdgeStyle;rounded=0;orthogonalLoop=1;jettySize=auto;html=1;" edge="1" parent="1" source="by5BGTRYLvVXxBjccCe3-1" target="by5BGTRYLvVXxBjccCe3-2">
          <mxGeometry relative="1" as="geometry" />
        </mxCell>
        <mxCell id="by5BGTRYLvVXxBjccCe3-1" value="AWS CodePipeline" style="sketch=0;points=[[0,0,0],[0.25,0,0],[0.5,0,0],[0.75,0,0],[1,0,0],[0,1,0],[0.25,1,0],[0.5,1,0],[0.75,1,0],[1,1,0],[0,0.25,0],[0,0.5,0],[0,0.75,0],[1,0.25,0],[1,0.5,0],[1,0.75,0]];outlineConnect=0;fontColor=#232F3E;gradientColor=#4D72F3;gradientDirection=north;fillColor=#3334B9;strokeColor=#ffffff;dashed=0;verticalLabelPosition=bottom;verticalAlign=top;align=center;html=1;fontSize=12;fontStyle=0;aspect=fixed;shape=mxgraph.aws4.resourceIcon;resIcon=mxgraph.aws4.codepipeline;" vertex="1" parent="1">
          <mxGeometry x="150" y="460" width="78" height="78" as="geometry" />
        </mxCell>
        <mxCell id="by5BGTRYLvVXxBjccCe3-13" style="edgeStyle=orthogonalEdgeStyle;rounded=0;orthogonalLoop=1;jettySize=auto;html=1;entryX=0;entryY=0.5;entryDx=0;entryDy=0;entryPerimeter=0;" edge="1" parent="1" source="by5BGTRYLvVXxBjccCe3-2" target="by5BGTRYLvVXxBjccCe3-9">
          <mxGeometry relative="1" as="geometry" />
        </mxCell>
        <mxCell id="by5BGTRYLvVXxBjccCe3-2" value="CodeCommit" style="sketch=0;points=[[0,0,0],[0.25,0,0],[0.5,0,0],[0.75,0,0],[1,0,0],[0,1,0],[0.25,1,0],[0.5,1,0],[0.75,1,0],[1,1,0],[0,0.25,0],[0,0.5,0],[0,0.75,0],[1,0.25,0],[1,0.5,0],[1,0.75,0]];outlineConnect=0;fontColor=#232F3E;gradientColor=#4D72F3;gradientDirection=north;fillColor=#3334B9;strokeColor=#ffffff;dashed=0;verticalLabelPosition=bottom;verticalAlign=top;align=center;html=1;fontSize=12;fontStyle=0;aspect=fixed;shape=mxgraph.aws4.resourceIcon;resIcon=mxgraph.aws4.codecommit;" vertex="1" parent="1">
          <mxGeometry x="400" y="460" width="78" height="78" as="geometry" />
        </mxCell>
        <mxCell id="by5BGTRYLvVXxBjccCe3-3" value="Primary AWS Region (sa-east-1)" style="points=[[0,0],[0.25,0],[0.5,0],[0.75,0],[1,0],[1,0.25],[1,0.5],[1,0.75],[1,1],[0.75,1],[0.5,1],[0.25,1],[0,1],[0,0.75],[0,0.5],[0,0.25]];outlineConnect=0;gradientColor=none;html=1;whiteSpace=wrap;fontSize=12;fontStyle=0;container=1;pointerEvents=0;collapsible=0;recursiveResize=0;shape=mxgraph.aws4.group;grIcon=mxgraph.aws4.group_region;strokeColor=#147EBA;fillColor=none;verticalAlign=top;align=left;spacingLeft=30;fontColor=#147EBA;dashed=1;" vertex="1" parent="1">
          <mxGeometry x="380" y="230" width="900" height="360" as="geometry" />
        </mxCell>
        <mxCell id="by5BGTRYLvVXxBjccCe3-5" value="Artifact Store (default artifact bucket) sa-east-1" style="fillColor=none;strokeColor=#3F8624;dashed=1;verticalAlign=top;fontStyle=1;fontColor=#3F8624;whiteSpace=wrap;html=1;fontSize=16;" vertex="1" parent="by5BGTRYLvVXxBjccCe3-3">
          <mxGeometry x="194" y="30" width="230" height="140" as="geometry" />
        </mxCell>
        <mxCell id="by5BGTRYLvVXxBjccCe3-8" value="template-sa-east-1.yaml" style="sketch=0;outlineConnect=0;fontColor=#232F3E;gradientColor=none;fillColor=#232F3D;strokeColor=none;dashed=0;verticalLabelPosition=middle;verticalAlign=middle;align=left;html=1;fontSize=12;fontStyle=0;aspect=fixed;pointerEvents=1;shape=mxgraph.aws4.document;labelPosition=right;spacingLeft=5;" vertex="1" parent="by5BGTRYLvVXxBjccCe3-3">
          <mxGeometry x="204" y="70" width="29.23" height="40" as="geometry" />
        </mxCell>
        <mxCell id="by5BGTRYLvVXxBjccCe3-14" value="template-us-east-2.yaml" style="sketch=0;outlineConnect=0;fontColor=#232F3E;gradientColor=none;fillColor=#232F3D;strokeColor=none;dashed=0;verticalLabelPosition=middle;verticalAlign=middle;align=left;html=1;fontSize=12;fontStyle=0;aspect=fixed;pointerEvents=1;shape=mxgraph.aws4.document;labelPosition=right;spacingLeft=5;" vertex="1" parent="by5BGTRYLvVXxBjccCe3-3">
          <mxGeometry x="204" y="120" width="29.23" height="40" as="geometry" />
        </mxCell>
        <mxCell id="by5BGTRYLvVXxBjccCe3-15" value="" style="sketch=0;outlineConnect=0;fontColor=#232F3E;gradientColor=none;fillColor=#3F8624;strokeColor=none;dashed=0;verticalLabelPosition=bottom;verticalAlign=top;align=center;html=1;fontSize=12;fontStyle=0;aspect=fixed;pointerEvents=1;shape=mxgraph.aws4.bucket;" vertex="1" parent="by5BGTRYLvVXxBjccCe3-3">
          <mxGeometry x="377" y="56" width="17.31" height="18" as="geometry" />
        </mxCell>
        <mxCell id="by5BGTRYLvVXxBjccCe3-4" value="us-east-2" style="points=[[0,0],[0.25,0],[0.5,0],[0.75,0],[1,0],[1,0.25],[1,0.5],[1,0.75],[1,1],[0.75,1],[0.5,1],[0.25,1],[0,1],[0,0.75],[0,0.5],[0,0.25]];outlineConnect=0;gradientColor=none;html=1;whiteSpace=wrap;fontSize=12;fontStyle=0;container=1;pointerEvents=0;collapsible=0;recursiveResize=0;shape=mxgraph.aws4.group;grIcon=mxgraph.aws4.group_region;strokeColor=#147EBA;fillColor=none;verticalAlign=top;align=left;spacingLeft=30;fontColor=#147EBA;dashed=1;" vertex="1" parent="1">
          <mxGeometry x="380" y="610" width="900" height="170" as="geometry" />
        </mxCell>
        <mxCell id="by5BGTRYLvVXxBjccCe3-30" style="edgeStyle=orthogonalEdgeStyle;rounded=0;orthogonalLoop=1;jettySize=auto;html=1;" edge="1" parent="by5BGTRYLvVXxBjccCe3-4" source="by5BGTRYLvVXxBjccCe3-23" target="by5BGTRYLvVXxBjccCe3-28">
          <mxGeometry relative="1" as="geometry" />
        </mxCell>
        <mxCell id="by5BGTRYLvVXxBjccCe3-23" value="Artifact Store (default artifact bucket) us-east-2" style="fillColor=none;strokeColor=#3F8624;dashed=1;verticalAlign=top;fontStyle=1;fontColor=#3F8624;whiteSpace=wrap;html=1;fontSize=16;" vertex="1" parent="by5BGTRYLvVXxBjccCe3-4">
          <mxGeometry x="34" y="40" width="230" height="100" as="geometry" />
        </mxCell>
        <mxCell id="by5BGTRYLvVXxBjccCe3-24" value="template-us-east-2.yaml" style="sketch=0;outlineConnect=0;fontColor=#232F3E;gradientColor=none;fillColor=#232F3D;strokeColor=none;dashed=0;verticalLabelPosition=middle;verticalAlign=middle;align=left;html=1;fontSize=12;fontStyle=0;aspect=fixed;pointerEvents=1;shape=mxgraph.aws4.document;labelPosition=right;spacingLeft=5;" vertex="1" parent="by5BGTRYLvVXxBjccCe3-4">
          <mxGeometry x="44" y="80" width="29.23" height="40" as="geometry" />
        </mxCell>
        <mxCell id="by5BGTRYLvVXxBjccCe3-26" value="" style="sketch=0;outlineConnect=0;fontColor=#232F3E;gradientColor=none;fillColor=#3F8624;strokeColor=none;dashed=0;verticalLabelPosition=bottom;verticalAlign=top;align=center;html=1;fontSize=12;fontStyle=0;aspect=fixed;pointerEvents=1;shape=mxgraph.aws4.bucket;" vertex="1" parent="by5BGTRYLvVXxBjccCe3-4">
          <mxGeometry x="218" y="66" width="17.31" height="18" as="geometry" />
        </mxCell>
        <mxCell id="by5BGTRYLvVXxBjccCe3-32" style="edgeStyle=orthogonalEdgeStyle;rounded=0;orthogonalLoop=1;jettySize=auto;html=1;entryX=0;entryY=0.5;entryDx=0;entryDy=0;entryPerimeter=0;" edge="1" parent="by5BGTRYLvVXxBjccCe3-4" source="by5BGTRYLvVXxBjccCe3-28" target="by5BGTRYLvVXxBjccCe3-29">
          <mxGeometry relative="1" as="geometry" />
        </mxCell>
        <mxCell id="by5BGTRYLvVXxBjccCe3-28" value="CloudFormation (us-east-2)" style="sketch=0;points=[[0,0,0],[0.25,0,0],[0.5,0,0],[0.75,0,0],[1,0,0],[0,1,0],[0.25,1,0],[0.5,1,0],[0.75,1,0],[1,1,0],[0,0.25,0],[0,0.5,0],[0,0.75,0],[1,0.25,0],[1,0.5,0],[1,0.75,0]];points=[[0,0,0],[0.25,0,0],[0.5,0,0],[0.75,0,0],[1,0,0],[0,1,0],[0.25,1,0],[0.5,1,0],[0.75,1,0],[1,1,0],[0,0.25,0],[0,0.5,0],[0,0.75,0],[1,0.25,0],[1,0.5,0],[1,0.75,0]];outlineConnect=0;fontColor=#232F3E;gradientColor=#F34482;gradientDirection=north;fillColor=#BC1356;strokeColor=#ffffff;dashed=0;verticalLabelPosition=bottom;verticalAlign=top;align=center;html=1;fontSize=12;fontStyle=0;aspect=fixed;shape=mxgraph.aws4.resourceIcon;resIcon=mxgraph.aws4.cloudformation;" vertex="1" parent="by5BGTRYLvVXxBjccCe3-4">
          <mxGeometry x="520" y="51" width="78" height="78" as="geometry" />
        </mxCell>
        <mxCell id="by5BGTRYLvVXxBjccCe3-29" value="AWS Lambda (us-east-2)" style="sketch=0;points=[[0,0,0],[0.25,0,0],[0.5,0,0],[0.75,0,0],[1,0,0],[0,1,0],[0.25,1,0],[0.5,1,0],[0.75,1,0],[1,1,0],[0,0.25,0],[0,0.5,0],[0,0.75,0],[1,0.25,0],[1,0.5,0],[1,0.75,0]];outlineConnect=0;fontColor=#232F3E;gradientColor=#F78E04;gradientDirection=north;fillColor=#D05C17;strokeColor=#ffffff;dashed=0;verticalLabelPosition=bottom;verticalAlign=top;align=center;html=1;fontSize=12;fontStyle=0;aspect=fixed;shape=mxgraph.aws4.resourceIcon;resIcon=mxgraph.aws4.lambda;" vertex="1" parent="by5BGTRYLvVXxBjccCe3-4">
          <mxGeometry x="770" y="51" width="78" height="78" as="geometry" />
        </mxCell>
        <mxCell id="by5BGTRYLvVXxBjccCe3-16" style="edgeStyle=orthogonalEdgeStyle;rounded=0;orthogonalLoop=1;jettySize=auto;html=1;" edge="1" parent="1" source="by5BGTRYLvVXxBjccCe3-9" target="by5BGTRYLvVXxBjccCe3-10">
          <mxGeometry relative="1" as="geometry" />
        </mxCell>
        <mxCell id="by5BGTRYLvVXxBjccCe3-18" style="edgeStyle=orthogonalEdgeStyle;rounded=0;orthogonalLoop=1;jettySize=auto;html=1;" edge="1" parent="1" source="by5BGTRYLvVXxBjccCe3-9" target="by5BGTRYLvVXxBjccCe3-5">
          <mxGeometry relative="1" as="geometry" />
        </mxCell>
        <mxCell id="by5BGTRYLvVXxBjccCe3-31" style="edgeStyle=orthogonalEdgeStyle;rounded=0;orthogonalLoop=1;jettySize=auto;html=1;" edge="1" parent="1" source="by5BGTRYLvVXxBjccCe3-9" target="by5BGTRYLvVXxBjccCe3-28">
          <mxGeometry relative="1" as="geometry">
            <Array as="points">
              <mxPoint x="689" y="620" />
              <mxPoint x="939" y="620" />
            </Array>
          </mxGeometry>
        </mxCell>
        <mxCell id="by5BGTRYLvVXxBjccCe3-9" value="CodeBuild" style="sketch=0;points=[[0,0,0],[0.25,0,0],[0.5,0,0],[0.75,0,0],[1,0,0],[0,1,0],[0.25,1,0],[0.5,1,0],[0.75,1,0],[1,1,0],[0,0.25,0],[0,0.5,0],[0,0.75,0],[1,0.25,0],[1,0.5,0],[1,0.75,0]];outlineConnect=0;fontColor=#232F3E;gradientColor=#4D72F3;gradientDirection=north;fillColor=#3334B9;strokeColor=#ffffff;dashed=0;verticalLabelPosition=bottom;verticalAlign=top;align=center;html=1;fontSize=12;fontStyle=0;aspect=fixed;shape=mxgraph.aws4.resourceIcon;resIcon=mxgraph.aws4.codebuild;" vertex="1" parent="1">
          <mxGeometry x="650" y="460" width="78" height="78" as="geometry" />
        </mxCell>
        <mxCell id="by5BGTRYLvVXxBjccCe3-17" style="edgeStyle=orthogonalEdgeStyle;rounded=0;orthogonalLoop=1;jettySize=auto;html=1;" edge="1" parent="1" source="by5BGTRYLvVXxBjccCe3-10" target="by5BGTRYLvVXxBjccCe3-12">
          <mxGeometry relative="1" as="geometry" />
        </mxCell>
        <mxCell id="by5BGTRYLvVXxBjccCe3-10" value="CloudFormation (sa-east-1)" style="sketch=0;points=[[0,0,0],[0.25,0,0],[0.5,0,0],[0.75,0,0],[1,0,0],[0,1,0],[0.25,1,0],[0.5,1,0],[0.75,1,0],[1,1,0],[0,0.25,0],[0,0.5,0],[0,0.75,0],[1,0.25,0],[1,0.5,0],[1,0.75,0]];points=[[0,0,0],[0.25,0,0],[0.5,0,0],[0.75,0,0],[1,0,0],[0,1,0],[0.25,1,0],[0.5,1,0],[0.75,1,0],[1,1,0],[0,0.25,0],[0,0.5,0],[0,0.75,0],[1,0.25,0],[1,0.5,0],[1,0.75,0]];outlineConnect=0;fontColor=#232F3E;gradientColor=#F34482;gradientDirection=north;fillColor=#BC1356;strokeColor=#ffffff;dashed=0;verticalLabelPosition=bottom;verticalAlign=top;align=center;html=1;fontSize=12;fontStyle=0;aspect=fixed;shape=mxgraph.aws4.resourceIcon;resIcon=mxgraph.aws4.cloudformation;" vertex="1" parent="1">
          <mxGeometry x="900" y="460" width="78" height="78" as="geometry" />
        </mxCell>
        <mxCell id="by5BGTRYLvVXxBjccCe3-12" value="AWS Lambda (sa-east-1)" style="sketch=0;points=[[0,0,0],[0.25,0,0],[0.5,0,0],[0.75,0,0],[1,0,0],[0,1,0],[0.25,1,0],[0.5,1,0],[0.75,1,0],[1,1,0],[0,0.25,0],[0,0.5,0],[0,0.75,0],[1,0.25,0],[1,0.5,0],[1,0.75,0]];outlineConnect=0;fontColor=#232F3E;gradientColor=#F78E04;gradientDirection=north;fillColor=#D05C17;strokeColor=#ffffff;dashed=0;verticalLabelPosition=bottom;verticalAlign=top;align=center;html=1;fontSize=12;fontStyle=0;aspect=fixed;shape=mxgraph.aws4.resourceIcon;resIcon=mxgraph.aws4.lambda;" vertex="1" parent="1">
          <mxGeometry x="1150" y="460" width="78" height="78" as="geometry" />
        </mxCell>
        <mxCell id="by5BGTRYLvVXxBjccCe3-33" value="Copies the &lt;br&gt;input artifacts" style="text;html=1;align=center;verticalAlign=middle;resizable=0;points=[];autosize=1;strokeColor=none;fillColor=none;fontStyle=1" vertex="1" parent="1">
          <mxGeometry x="139" y="570" width="100" height="40" as="geometry" />
        </mxCell>
      </root>
    </mxGraphModel>
  </diagram>
</mxfile>
